<?xml version="1.0" encoding="UTF-8" standalone="no"?>
<!-- Created with Inkscape (http://www.inkscape.org/) -->

<svg
   xmlns:dc="http://purl.org/dc/elements/1.1/"
   xmlns:cc="http://creativecommons.org/ns#"
   xmlns:rdf="http://www.w3.org/1999/02/22-rdf-syntax-ns#"
   xmlns:svg="http://www.w3.org/2000/svg"
   xmlns="http://www.w3.org/2000/svg"
   xmlns:sodipodi="http://sodipodi.sourceforge.net/DTD/sodipodi-0.dtd"
   xmlns:inkscape="http://www.inkscape.org/namespaces/inkscape"
   width="210mm"
   height="297mm"
   id="svg2"
   version="1.1"
   inkscape:version="0.48.2 r9819"
   sodipodi:docname="mesh-preparation.svg"
   inkscape:export-filename="Q:\home\file\mesh-preparation.png"
   inkscape:export-xdpi="90"
   inkscape:export-ydpi="90">
  <defs
     id="defs4">
    <clipPath
       id="clipPath4076"
       clipPathUnits="userSpaceOnUse">
      <path
         id="path4078"
         d="M 0,0 612,0 612,792 0,792 0,0 z"
         inkscape:connector-curvature="0" />
    </clipPath>
    <clipPath
       id="clipPath4098"
       clipPathUnits="userSpaceOnUse">
      <path
         id="path4100"
         d="M 0,0 612,0 612,792 0,792 0,0 z"
         inkscape:connector-curvature="0" />
    </clipPath>
    <clipPath
       id="clipPath4116"
       clipPathUnits="userSpaceOnUse">
      <path
         id="path4118"
         d="M 0,0 612,0 612,792 0,792 0,0 z"
         inkscape:connector-curvature="0" />
    </clipPath>
  </defs>
  <sodipodi:namedview
     id="base"
     pagecolor="#ffffff"
     bordercolor="#666666"
     borderopacity="1.0"
     gridtolerance="10000"
     guidetolerance="10"
     objecttolerance="10"
     inkscape:pageopacity="0.0"
     inkscape:pageshadow="2"
     inkscape:zoom="0.49497475"
     inkscape:cx="116.97843"
     inkscape:cy="640.322"
     inkscape:document-units="mm"
     inkscape:current-layer="layer1"
     showgrid="false"
     inkscape:window-width="1366"
     inkscape:window-height="664"
     inkscape:window-x="-8"
     inkscape:window-y="-8"
     inkscape:window-maximized="1" />
  <metadata
     id="metadata7">
    <rdf:RDF>
      <cc:Work
         rdf:about="">
        <dc:format>image/svg+xml</dc:format>
        <dc:type
           rdf:resource="http://purl.org/dc/dcmitype/StillImage" />
        <dc:title></dc:title>
      </cc:Work>
    </rdf:RDF>
  </metadata>
  <g
     inkscape:label="Пласт 1"
     inkscape:groupmode="layer"
     id="layer1">
    <rect
       style="fill:#00ffff;fill-opacity:1;fill-rule:evenodd;stroke:#1c1c1c;stroke-width:1px;stroke-linecap:butt;stroke-linejoin:miter;stroke-opacity:0"
       id="rect3051"
       width="782.85712"
       height="545.71429"
       x="-18.285713"
       y="1.2192993" />
    <g
       transform="matrix(2.0438845,0,0,2.0438845,-95.581521,-895.96203)"
       id="layer1-7"
       inkscape:label="Layer 1">
      <g
         transform="matrix(4.2607142,0,0,4.2607142,-1369.1366,-1708.624)"
         id="g3103">
        <g
           transform="matrix(1.25,0,0,-1.25,-276.39032,1311.3404)"
           id="g4072">
          <g
             id="g4074"
             clip-path="url(#clipPath4076)">
            <g
               id="g4080"
               transform="translate(549.8579,628.924)">
              <path
                 inkscape:connector-curvature="0"
                 d="M 0,0 -29.169,0 C -30.18,0 -31,-0.82 -31,-1.832 l 0,-2.67 -4.337,0 -20.983,18.184 c -0.598,0.517 -1.666,0.261 -2.389,-0.571 -0.721,-0.834 -0.822,-1.927 -0.225,-2.445 l 21.528,-18.656 0.464,0.535 1.127,-0.377 0,-0.662 4.815,0 0,-15.108 c 0,-1.007 0.82,-1.83 1.831,-1.83 l 29.169,0 c 1.012,0 1.832,0.823 1.832,1.83 l 0,21.77 C 1.832,-0.82 1.012,0 0,0"
                 style="fill:#241f21;fill-opacity:1;fill-rule:nonzero;stroke:none"
                 id="path4082" />
            </g>
            <g
               id="g4084"
               transform="translate(548.0474,619.8615)">
              <path
                 inkscape:connector-curvature="0"
                 d="m 0,0 c 0,-0.299 0.242,-0.543 0.542,-0.543 0.3,0 0.542,0.244 0.542,0.543 0,0.299 -0.242,0.541 -0.542,0.541 C 0.242,0.541 0,0.299 0,0"
                 style="fill:#ffffff;fill-opacity:1;fill-rule:nonzero;stroke:none"
                 id="path4086" />
            </g>
            <g
               id="g4088"
               transform="translate(544.1929,619.8615)">
              <path
                 inkscape:connector-curvature="0"
                 d="m 0,0 c 0,-0.299 0.242,-0.543 0.542,-0.543 0.3,0 0.543,0.244 0.543,0.543 0,0.299 -0.243,0.541 -0.543,0.541 C 0.242,0.541 0,0.299 0,0"
                 style="fill:#ffffff;fill-opacity:1;fill-rule:nonzero;stroke:none"
                 id="path4090" />
            </g>
          </g>
        </g>
        <path
           inkscape:connector-curvature="0"
           d="m 409.34593,537.19295 -4.8175,0 0,-1.355 4.8175,0 0,1.355 z"
           style="fill:#ffffff;fill-opacity:1;fill-rule:nonzero;stroke:none"
           id="path4092" />
        <g
           transform="matrix(1.25,0,0,-1.25,-276.39032,1311.3404)"
           id="g4094">
          <g
             id="g4096"
             clip-path="url(#clipPath4098)">
            <g
               id="g4102"
               transform="translate(548.0474,616.209)">
              <path
                 inkscape:connector-curvature="0"
                 d="m 0,0 c 0,-0.301 0.242,-0.543 0.542,-0.543 0.3,0 0.542,0.242 0.542,0.543 0,0.299 -0.242,0.541 -0.542,0.541 C 0.242,0.541 0,0.299 0,0"
                 style="fill:#ffffff;fill-opacity:1;fill-rule:nonzero;stroke:none"
                 id="path4104" />
            </g>
            <g
               id="g4106"
               transform="translate(544.1929,616.209)">
              <path
                 inkscape:connector-curvature="0"
                 d="m 0,0 c 0,-0.301 0.242,-0.543 0.542,-0.543 0.3,0 0.543,0.242 0.543,0.543 0,0.299 -0.243,0.541 -0.543,0.541 C 0.242,0.541 0,0.299 0,0"
                 style="fill:#ffffff;fill-opacity:1;fill-rule:nonzero;stroke:none"
                 id="path4108" />
            </g>
          </g>
        </g>
        <path
           inkscape:connector-curvature="0"
           d="m 409.34593,541.75795 -4.8175,0 0,-1.355 4.8175,0 0,1.355 z"
           style="fill:#ffffff;fill-opacity:1;fill-rule:nonzero;stroke:none"
           id="path4110" />
        <g
           transform="matrix(1.25,0,0,-1.25,-276.39032,1311.3404)"
           id="g4112">
          <g
             id="g4114"
             clip-path="url(#clipPath4116)">
            <g
               id="g4120"
               transform="translate(548.0474,612.5547)">
              <path
                 inkscape:connector-curvature="0"
                 d="m 0,0 c 0,-0.299 0.242,-0.541 0.542,-0.541 0.3,0 0.542,0.242 0.542,0.541 0,0.301 -0.242,0.543 -0.542,0.543 C 0.242,0.543 0,0.301 0,0"
                 style="fill:#ffffff;fill-opacity:1;fill-rule:nonzero;stroke:none"
                 id="path4122" />
            </g>
            <g
               id="g4124"
               transform="translate(544.1929,612.5547)">
              <path
                 inkscape:connector-curvature="0"
                 d="m 0,0 c 0,-0.299 0.242,-0.541 0.542,-0.541 0.3,0 0.543,0.242 0.543,0.541 0,0.301 -0.243,0.543 -0.543,0.543 C 0.242,0.543 0,0.301 0,0"
                 style="fill:#ffffff;fill-opacity:1;fill-rule:nonzero;stroke:none"
                 id="path4126" />
            </g>
          </g>
        </g>
        <path
           inkscape:connector-curvature="0"
           d="m 409.34593,546.32295 -4.8175,0 0,-1.355 4.8175,0 0,1.355 z"
           style="fill:#ffffff;fill-opacity:1;fill-rule:nonzero;stroke:none"
           id="path4128" />
      </g>
    </g>
    <text
       xml:space="preserve"
       style="font-size:83.08126068px;font-style:normal;font-variant:normal;font-weight:normal;font-stretch:normal;line-height:125%;letter-spacing:0px;word-spacing:0px;fill:#000000;fill-opacity:1;stroke:none;font-family:Segoe UI;-inkscape-font-specification:Segoe UI"
       x="178.40221"
       y="93.79007"
       id="text3821"
       sodipodi:linespacing="125%"><tspan
         sodipodi:role="line"
         id="tspan3823"
         x="178.40221"
         y="93.79007"
         style="font-weight:bold;-inkscape-font-specification:Segoe UI Bold">РЫХТУЕМСЯ!</tspan></text>
    <text
       xml:space="preserve"
       style="font-size:40px;font-style:normal;font-weight:normal;line-height:125%;letter-spacing:0px;word-spacing:0px;fill:#000000;fill-opacity:1;stroke:none;font-family:Sans"
       x="356.85715"
       y="135.50504"
       id="text3825"
       sodipodi:linespacing="125%"><tspan
         sodipodi:role="line"
         id="tspan3827"
         x="356.85715"
         y="135.50504">да першага сезону</tspan></text>
    <text
       xml:space="preserve"
       style="font-size:120.16538239px;font-style:normal;font-weight:bold;line-height:125%;letter-spacing:0px;word-spacing:0px;fill:#000000;fill-opacity:1;stroke:none;font-family:Sans;-inkscape-font-specification:Segoe UI Bold"
       x="35.93819"
       y="433.39587"
       id="text3829"
       sodipodi:linespacing="125%"
       transform="scale(0.97040554,1.030497)"><tspan
         sodipodi:role="line"
         id="tspan3831"
         x="35.93819"
         y="433.39587"
         style="font-style:normal;font-variant:normal;font-weight:bold;font-stretch:normal;font-family:Segoe UI;-inkscape-font-specification:Segoe UI Bold">МЭШ</tspan><tspan
         sodipodi:role="line"
         x="35.93819"
         y="583.60266"
         id="tspan3833" /></text>
    <text
       xml:space="preserve"
       style="font-size:105.91667175px;font-style:normal;font-weight:normal;line-height:125%;letter-spacing:0px;word-spacing:0px;fill:#000000;fill-opacity:1;stroke:none;font-family:Sans"
       x="357.3895"
       y="435.00742"
       id="text3835"
       sodipodi:linespacing="125%"><tspan
         sodipodi:role="line"
         id="tspan3837"
         x="357.3895"
         y="435.00742"
         style="fill:#ffffff">КЛУБу</tspan></text>
    <text
       xml:space="preserve"
       style="font-size:40px;font-style:normal;font-weight:normal;line-height:125%;letter-spacing:0px;word-spacing:0px;fill:#000000;fill-opacity:1;stroke:none;font-family:Sans"
       x="363.71426"
       y="238.36218"
       id="text3839"
       sodipodi:linespacing="125%"><tspan
         sodipodi:role="line"
         id="tspan3841"
         x="363.71426"
         y="238.36218"
         style="fill:#ffffff">24/31 студзеня</tspan></text>
    <text
       xml:space="preserve"
       style="font-size:40px;font-style:normal;font-weight:normal;line-height:125%;letter-spacing:0px;word-spacing:0px;fill:#000000;fill-opacity:1;stroke:none;font-family:Sans"
       x="362.57144"
       y="284.07648"
       id="text3843"
       sodipodi:linespacing="125%"><tspan
         sodipodi:role="line"
         id="tspan3845"
         x="362.57144"
         y="284.07648"
         style="fill:#ffffff">16:00</tspan></text>
    <text
       xml:space="preserve"
       style="font-size:26.51598358px;font-style:normal;font-weight:normal;line-height:125%;letter-spacing:0px;word-spacing:0px;fill:#000000;fill-opacity:1;stroke:none;font-family:Sans"
       x="350.77292"
       y="490.86819"
       id="text3847"
       sodipodi:linespacing="125%"><tspan
         sodipodi:role="line"
         id="tspan3849"
         x="350.77292"
         y="490.86819">адрас: Захарава 77а, пам 2б</tspan></text>
    <text
       xml:space="preserve"
       style="font-size:27.08350182px;font-style:normal;font-weight:normal;line-height:125%;letter-spacing:0px;word-spacing:0px;fill:#000000;fill-opacity:1;stroke:none;font-family:Sans"
       x="42.485943"
       y="220.63351"
       id="text3851"
       sodipodi:linespacing="125%"><tspan
         sodipodi:role="line"
         id="tspan3853"
         x="42.485943"
         y="220.63351">falanster.by</tspan></text>
    <path
       style="opacity:0;fill:#00ffff;fill-opacity:1;stroke:#1c1c1c;stroke-width:0;stroke-miterlimit:4;stroke-opacity:0;stroke-dasharray:none"
       d="m 367.0922,396.8879 c 0,-36.02877 0.14561,-37.37565 4.04061,-37.37565 3.7237,0 4.04061,1.34688 4.04061,17.1726 0,15.01976 0.44323,17.16871 3.53554,17.14165 5.63797,-0.0493 7.68461,-2.24282 14.22177,-15.24223 7.07402,-14.06696 9.07927,-16.05958 18.10311,-17.9891 5.69825,-1.21842 6.56599,-0.86649 6.56599,2.66298 0,2.93482 -1.54659,4.24489 -5.55584,4.70621 -4.46498,0.51375 -6.7971,2.97672 -11.87773,12.54418 -3.47704,6.54771 -7.80509,12.73496 -9.61789,13.74945 -2.85944,1.60022 -2.50952,2.50631 2.64192,6.84096 5.11959,4.30786 22.38924,29.07156 22.38924,32.10492 0,2.66559 -9.80888,0.69574 -10.91717,-2.19241 -3.728,-9.71501 -18.68451,-29.13678 -23.81534,-30.92539 l -5.6736,-1.97783 0,18.07765 c 0,16.73078 -0.30104,18.07765 -4.04061,18.07765 -3.895,0 -4.04061,-1.34687 -4.04061,-37.37564 z"
       id="path3855"
       inkscape:connector-curvature="0" />
    <path
       style="opacity:0;fill:#00ffff;fill-opacity:1;stroke:#1c1c1c;stroke-width:0;stroke-miterlimit:4;stroke-opacity:0;stroke-dasharray:none"
       d="m 375.89054,417.09095 c -0.006,-10.00051 0.33548,-14.34634 0.75918,-9.65741 0.42371,4.68894 0.42875,12.87117 0.0112,18.18275 -0.41755,5.31157 -0.76422,1.47517 -0.77038,-8.52534 z"
       id="path3857"
       inkscape:connector-curvature="0" />
  </g>
</svg>
